<svg width="400" height="300" viewBox="0 0 400 300" fill="none" xmlns="http://www.w3.org/2000/svg">
  <!-- Background shape -->
  <rect x="50" y="30" width="300" height="240" rx="20" fill="#1a103f" opacity="0.7"/>
  
  <!-- Server rack -->
  <rect x="100" y="60" width="120" height="180" rx="5" fill="#2d1b69"/>
  <rect x="110" y="70" width="100" height="20" rx="2" fill="#ff69b4"/>
  <rect x="110" y="100" width="100" height="20" rx="2" fill="#3776AB"/>
  <rect x="110" y="130" width="100" height="20" rx="2" fill="#ff69b4"/>
  <rect x="110" y="160" width="100" height="20" rx="2" fill="#3776AB"/>
  <rect x="110" y="190" width="100" height="20" rx="2" fill="#ff69b4"/>
  
  <!-- Server lights -->
  <circle cx="120" cy="80" r="3" fill="#00ff00"/>
  <circle cx="130" cy="80" r="3" fill="#00ff00"/>
  <circle cx="120" cy="110" r="3" fill="#00ff00"/>
  <circle cx="130" cy="110" r="3" fill="#00ff00"/>
  <circle cx="120" cy="140" r="3" fill="#00ff00"/>
  <circle cx="130" cy="140" r="3" fill="#00ff00"/>
  <circle cx="120" cy="170" r="3" fill="#00ff00"/>
  <circle cx="130" cy="170" r="3" fill="#00ff00"/>
  <circle cx="120" cy="200" r="3" fill="#00ff00"/>
  <circle cx="130" cy="200" r="3" fill="#00ff00"/>
  
  <!-- Code window -->
  <rect x="240" y="70" width="120" height="160" rx="5" fill="#231654"/>
  <rect x="240" y="70" width="120" height="20" rx="5" fill="#1a103f"/>
  <circle cx="250" cy="80" r="3" fill="#ff0000"/>
  <circle cx="260" cy="80" r="3" fill="#ffff00"/>
  <circle cx="270" cy="80" r="3" fill="#00ff00"/>
  
  <!-- Code lines -->
  <rect x="250" y="100" width="100" height="3" rx="1.5" fill="#ff69b4"/>
  <rect x="250" y="110" width="80" height="3" rx="1.5" fill="#ffffff" opacity="0.7"/>
  <rect x="250" y="120" width="90" height="3" rx="1.5" fill="#ffffff" opacity="0.7"/>
  <rect x="260" y="130" width="70" height="3" rx="1.5" fill="#3776AB"/>
  <rect x="260" y="140" width="60" height="3" rx="1.5" fill="#ffffff" opacity="0.7"/>
  <rect x="260" y="150" width="80" height="3" rx="1.5" fill="#ffffff" opacity="0.7"/>
  <rect x="250" y="160" width="100" height="3" rx="1.5" fill="#ff69b4"/>
  <rect x="250" y="170" width="70" height="3" rx="1.5" fill="#ffffff" opacity="0.7"/>
  <rect x="250" y="180" width="90" height="3" rx="1.5" fill="#3776AB"/>
  <rect x="260" y="190" width="60" height="3" rx="1.5" fill="#ffffff" opacity="0.7"/>
  
  <!-- Connection lines -->
  <path d="M220 100 L240 120" stroke="#ff69b4" stroke-width="2"/>
  <path d="M220 130 L240 140" stroke="#ff69b4" stroke-width="2"/>
  <path d="M220 160 L240 170" stroke="#ff69b4" stroke-width="2"/>
</svg>
