<svg width="400" height="300" viewBox="0 0 400 300" fill="none" xmlns="http://www.w3.org/2000/svg">
  <!-- Background shape -->
  <rect x="40" y="20" width="320" height="260" rx="20" fill="#1a103f" opacity="0.7"/>
  
  <!-- Python logo -->
  <g transform="translate(80, 60) scale(0.8)">
    <path d="M60,30 C60,13.4315 46.5685,0 30,0 C13.4315,0 0,13.4315 0,30 C0,46.5685 13.4315,60 30,60 C46.5685,60 60,46.5685 60,30z" fill="#3776AB"/>
    <path d="M30,5 C17.5066,5 17.5066,10 17.5066,15 L17.5066,25 L30,25 L30,27.5 L10,27.5 C5,27.5 0,32.5 0,37.5 C0,42.5 0,50 0,55 C0,60 5,65 10,65 L20,65 L20,55 C20,50 25,45 30,45 L40,45 C45,45 50,40 50,35 L50,15 C50,10 45,5 40,5 L30,5 z M22.5,15 C24.1569,15 25.5,16.3431 25.5,18 C25.5,19.6569 24.1569,21 22.5,21 C20.8431,21 19.5,19.6569 19.5,18 C19.5,16.3431 20.8431,15 22.5,15 z" fill="#ffffff"/>
    <path d="M30,65 C42.4934,65 42.4934,60 42.4934,55 L42.4934,45 L30,45 L30,42.5 L50,42.5 C55,42.5 60,37.5 60,32.5 C60,27.5 60,20 60,15 C60,10 55,5 50,5 L40,5 L40,15 C40,20 35,25 30,25 L20,25 C15,25 10,30 10,35 L10,55 C10,60 15,65 20,65 L30,65 z M37.5,55 C35.8431,55 34.5,53.6569 34.5,52 C34.5,50.3431 35.8431,49 37.5,49 C39.1569,49 40.5,50.3431 40.5,52 C40.5,53.6569 39.1569,55 37.5,55 z" fill="#ffffff"/>
  </g>
  
  <!-- Django logo -->
  <g transform="translate(180, 60) scale(0.8)">
    <path d="M60,0 L60,60 L50,60 L50,10 L40,10 L40,60 L30,60 L30,10 L20,10 L20,60 L10,60 L10,10 L0,10 L0,0 L60,0 z" fill="#092E20"/>
    <path d="M80,10 L80,50 C80,55 75,60 70,60 L60,60 L60,50 L70,50 C72.5,50 70,50 70,50 L70,10 L80,10 z" fill="#092E20"/>
    <circle cx="75" cy="5" r="5" fill="#092E20"/>
  </g>
  
  <!-- Linux logo -->
  <g transform="translate(80, 160) scale(0.7)">
    <ellipse cx="30" cy="30" rx="30" ry="30" fill="#FCC624"/>
    <ellipse cx="22" cy="22" rx="4" ry="6" fill="#000000"/>
    <ellipse cx="38" cy="22" rx="4" ry="6" fill="#000000"/>
    <path d="M20,35 C25,45 35,45 40,35" stroke="#000000" stroke-width="2" fill="none"/>
    <path d="M10,15 L15,10 M50,15 L45,10" stroke="#000000" stroke-width="2"/>
    <path d="M15,40 C0,48 10,60 30,55 C50,60 60,48 45,40" fill="#000000"/>
  </g>
  
  <!-- HTML/CSS logo -->
  <g transform="translate(180, 160) scale(0.7)">
    <path d="M0,0 L60,0 L54.5455,54.5455 L30,60 L5.4545,54.5455 L0,0 z" fill="#E44D26"/>
    <path d="M30,5.4545 L30,55.0909 L49.0909,50.7273 L54.5455,5.4545 L30,5.4545 z" fill="#F16529"/>
    <path d="M30,21.8182 L12.2727,21.8182 L12.8182,29.0909 L30,29.0909 L30,21.8182 z M30,12.2727 L11.7273,12.2727 L12.2727,19.5455 L30,19.5455 L30,12.2727 z M30,36.3636 L20.4545,36.3636 L19.9091,43.6364 L30,46.9091 L30,36.3636 z" fill="#EBEBEB"/>
    <path d="M30,21.8182 L47.7273,21.8182 L47.1818,29.0909 L30,29.0909 L30,21.8182 z M30,12.2727 L48.2727,12.2727 L48.8182,5 L11.1818,5 L13.3636,29.0909 L30,29.0909 L30,36.3636 L20.4545,36.3636 L19.9091,43.6364 L30,46.9091 L40.0909,43.6364 L41.1818,32.7273 L34.5455,32.7273 L30,32.7273 L30,12.2727 z" fill="#FFFFFF"/>
  </g>
  
  <!-- JavaScript logo -->
  <g transform="translate(280, 160) scale(0.7)">
    <rect width="60" height="60" fill="#F7DF1E"/>
    <path d="M39.6,46.2 C40.8,48.4 42.6,50 46,50 C48.8,50 50.6,48.6 50.6,46.6 C50.6,44.2 48.8,43.2 45.6,41.6 L43.8,40.8 C38.8,38.4 35.6,35.4 35.6,29.8 C35.6,24.6 39.6,20.6 45.8,20.6 C50.2,20.6 53.4,22.2 55.6,26.2 L50.2,29.6 C49.2,27.8 48.2,26.8 45.8,26.8 C43.4,26.8 41.8,28.4 41.8,29.6 C41.8,31.2 43.4,32.2 46.4,33.6 L48.2,34.4 C54,37.2 57.2,40 57.2,45.8 C57.2,52 52.2,56.2 46.2,56.2 C40.4,56.2 36.4,53 34.4,48.8 L39.6,46.2 z M19.4,46.6 C20.4,48.4 21.2,49.8 23.4,49.8 C25.4,49.8 26.6,49 26.6,45.8 L26.6,21 L33,21 L33,46 C33,52.4 29.2,56 23.6,56 C18.6,56 15.4,53 14,49.2 L19.4,46.6 z" fill="#000000"/>
  </g>
  
  <!-- Connection lines -->
  <path d="M110 120 L170 120" stroke="#ff69b4" stroke-width="2" stroke-dasharray="5,5"/>
  <path d="M210 120 L270 120" stroke="#ff69b4" stroke-width="2" stroke-dasharray="5,5"/>
  <path d="M110 190 L170 190" stroke="#ff69b4" stroke-width="2" stroke-dasharray="5,5"/>
  <path d="M210 190 L270 190" stroke="#ff69b4" stroke-width="2" stroke-dasharray="5,5"/>
  <path d="M140 130 L140 160" stroke="#ff69b4" stroke-width="2" stroke-dasharray="5,5"/>
  <path d="M240 130 L240 160" stroke="#ff69b4" stroke-width="2" stroke-dasharray="5,5"/>
</svg>
